<?xml version="1.0" standalone="no"?>
<!DOCTYPE svg PUBLIC "-//W3C//DTD SVG 20010904//EN"
 "http://www.w3.org/TR/2001/REC-SVG-20010904/DTD/svg10.dtd">
<svg version="1.0" xmlns="http://www.w3.org/2000/svg"
 width="200.000000pt" height="200.000000pt" viewBox="0 0 200.000000 200.000000"
 preserveAspectRatio="xMidYMid meet">

<g transform="translate(0.000000,200.000000) scale(0.100000,-0.100000)"
fill="#c75d49" stroke="none">
<path d="M328 1704 c-120 -29 -205 -95 -262 -203 -81 -154 -87 -362 -15 -503
51 -100 172 -182 307 -208 60 -12 62 -13 62 -44 0 -59 -49 -136 -147 -234
l-93 -92 24 -66 c13 -36 26 -68 29 -70 3 -3 40 7 83 21 209 70 394 236 501
450 62 122 85 217 91 366 5 160 -10 250 -61 351 -92 186 -310 283 -519 232z"/>
<path d="M1432 1709 c-111 -21 -224 -103 -275 -198 -79 -144 -87 -374 -18
-509 54 -105 171 -187 305 -212 64 -12 66 -13 66 -42 0 -66 -111 -219 -214
-297 -28 -21 -29 -22 -17 -64 7 -23 19 -56 26 -74 13 -31 14 -31 57 -22 23 5
76 25 117 45 201 94 371 277 456 489 87 218 84 486 -7 657 -36 68 -113 147
-179 182 -85 47 -215 65 -317 45z"/>
</g>
</svg>
